<mxfile host="65bd71144e">
    <diagram id="Dx0dtj732QcWo3YBkNR2" name="Begin of file">
        <mxGraphModel dx="771" dy="601" grid="1" gridSize="10" guides="1" tooltips="1" connect="1" arrows="1" fold="1" page="1" pageScale="1" pageWidth="440" pageHeight="240" math="0" shadow="0">
            <root>
                <mxCell id="K0bM4Os14uleI2kK7G8Q-0"/>
                <mxCell id="K0bM4Os14uleI2kK7G8Q-1" parent="K0bM4Os14uleI2kK7G8Q-0"/>
                <mxCell id="x5LED5ZJR396gRPKJRUF-3" value="" style="edgeStyle=none;html=1;rounded=0;" parent="K0bM4Os14uleI2kK7G8Q-1" source="x5LED5ZJR396gRPKJRUF-0" target="x5LED5ZJR396gRPKJRUF-2" edge="1">
                    <mxGeometry relative="1" as="geometry"/>
                </mxCell>
                <mxCell id="1t4y2wp7Kp-wil_izmn8-1" value="" style="edgeStyle=none;html=1;rounded=0;" parent="K0bM4Os14uleI2kK7G8Q-1" source="x5LED5ZJR396gRPKJRUF-0" target="1t4y2wp7Kp-wil_izmn8-0" edge="1">
                    <mxGeometry relative="1" as="geometry"/>
                </mxCell>
                <mxCell id="x5LED5ZJR396gRPKJRUF-0" value="begin of file" style="rounded=0;whiteSpace=wrap;html=1;fillColor=#a20025;fontColor=#ffffff;strokeColor=#6F0000;" parent="K0bM4Os14uleI2kK7G8Q-1" vertex="1">
                    <mxGeometry x="70" y="145" width="120" height="60" as="geometry"/>
                </mxCell>
                <mxCell id="1t4y2wp7Kp-wil_izmn8-4" style="edgeStyle=none;html=1;rounded=0;" parent="K0bM4Os14uleI2kK7G8Q-1" source="x5LED5ZJR396gRPKJRUF-2" target="1t4y2wp7Kp-wil_izmn8-0" edge="1">
                    <mxGeometry relative="1" as="geometry"/>
                </mxCell>
                <mxCell id="x5LED5ZJR396gRPKJRUF-2" value="import" style="whiteSpace=wrap;html=1;rounded=0;fillColor=#0050ef;fontColor=#ffffff;strokeColor=#001DBC;" parent="K0bM4Os14uleI2kK7G8Q-1" vertex="1">
                    <mxGeometry x="160" y="35" width="120" height="60" as="geometry"/>
                </mxCell>
                <mxCell id="1t4y2wp7Kp-wil_izmn8-0" value="compound definition" style="whiteSpace=wrap;html=1;rounded=0;fillColor=#0050ef;fontColor=#ffffff;strokeColor=#001DBC;" parent="K0bM4Os14uleI2kK7G8Q-1" vertex="1">
                    <mxGeometry x="250" y="145" width="120" height="60" as="geometry"/>
                </mxCell>
                <mxCell id="1t4y2wp7Kp-wil_izmn8-3" style="edgeStyle=none;html=1;rounded=0;" parent="K0bM4Os14uleI2kK7G8Q-1" source="x5LED5ZJR396gRPKJRUF-2" target="x5LED5ZJR396gRPKJRUF-2" edge="1">
                    <mxGeometry relative="1" as="geometry"/>
                </mxCell>
            </root>
        </mxGraphModel>
    </diagram>
    <diagram id="NpTubPMHVx074SL99j6E" name="import">
        <mxGraphModel dx="771" dy="601" grid="1" gridSize="10" guides="1" tooltips="1" connect="1" arrows="1" fold="1" page="1" pageScale="1" pageWidth="440" pageHeight="240" math="0" shadow="0">
            <root>
                <mxCell id="a0ymAH8b3E_14FotBH_9-0"/>
                <mxCell id="a0ymAH8b3E_14FotBH_9-1" parent="a0ymAH8b3E_14FotBH_9-0"/>
            </root>
        </mxGraphModel>
    </diagram>
    <diagram id="7Wg6-fGho9H-3FkC3Yex" name="compound declaration">
        <mxGraphModel dx="771" dy="601" grid="1" gridSize="10" guides="1" tooltips="1" connect="1" arrows="1" fold="1" page="1" pageScale="1" pageWidth="440" pageHeight="240" math="0" shadow="0">
            <root>
                <mxCell id="2ecre6o9_7yLiz5-VAfT-0"/>
                <mxCell id="2ecre6o9_7yLiz5-VAfT-1" parent="2ecre6o9_7yLiz5-VAfT-0"/>
                <mxCell id="ajDW3C71jfbvK6I6vPXJ-2" value="" style="edgeStyle=none;html=1;" parent="2ecre6o9_7yLiz5-VAfT-1" source="ajDW3C71jfbvK6I6vPXJ-0" target="ajDW3C71jfbvK6I6vPXJ-1" edge="1">
                    <mxGeometry relative="1" as="geometry"/>
                </mxCell>
                <mxCell id="ajDW3C71jfbvK6I6vPXJ-4" value="" style="edgeStyle=none;html=1;" parent="2ecre6o9_7yLiz5-VAfT-1" source="ajDW3C71jfbvK6I6vPXJ-0" target="ajDW3C71jfbvK6I6vPXJ-3" edge="1">
                    <mxGeometry relative="1" as="geometry"/>
                </mxCell>
                <mxCell id="ajDW3C71jfbvK6I6vPXJ-0" value="compound declaration" style="whiteSpace=wrap;html=1;rounded=0;fillColor=#a20025;fontColor=#ffffff;strokeColor=#6F0000;" parent="2ecre6o9_7yLiz5-VAfT-1" vertex="1">
                    <mxGeometry x="80" y="90" width="120" height="60" as="geometry"/>
                </mxCell>
                <mxCell id="ajDW3C71jfbvK6I6vPXJ-6" style="edgeStyle=none;html=1;" parent="2ecre6o9_7yLiz5-VAfT-1" source="ajDW3C71jfbvK6I6vPXJ-1" target="ajDW3C71jfbvK6I6vPXJ-0" edge="1">
                    <mxGeometry relative="1" as="geometry"/>
                </mxCell>
                <mxCell id="ajDW3C71jfbvK6I6vPXJ-1" value="namespace definition" style="whiteSpace=wrap;html=1;fillColor=#0050ef;strokeColor=#001DBC;fontColor=#ffffff;rounded=0;" parent="2ecre6o9_7yLiz5-VAfT-1" vertex="1">
                    <mxGeometry x="240" y="20" width="120" height="60" as="geometry"/>
                </mxCell>
                <mxCell id="ajDW3C71jfbvK6I6vPXJ-5" style="edgeStyle=none;html=1;" parent="2ecre6o9_7yLiz5-VAfT-1" source="ajDW3C71jfbvK6I6vPXJ-3" target="ajDW3C71jfbvK6I6vPXJ-0" edge="1">
                    <mxGeometry relative="1" as="geometry"/>
                </mxCell>
                <mxCell id="ajDW3C71jfbvK6I6vPXJ-3" value="function definition" style="whiteSpace=wrap;html=1;fillColor=#0050ef;strokeColor=#001DBC;fontColor=#ffffff;rounded=0;" parent="2ecre6o9_7yLiz5-VAfT-1" vertex="1">
                    <mxGeometry x="240" y="160" width="120" height="60" as="geometry"/>
                </mxCell>
            </root>
        </mxGraphModel>
    </diagram>
    <diagram id="Am9vwx5nWK7F4yHok11h" name="function declaration">
        <mxGraphModel dx="771" dy="601" grid="1" gridSize="10" guides="0" tooltips="1" connect="1" arrows="1" fold="1" page="1" pageScale="1" pageWidth="1800" pageHeight="280" math="0" shadow="0">
            <root>
                <mxCell id="FMmAYBaprC8Lxchw0cOx-0"/>
                <mxCell id="FMmAYBaprC8Lxchw0cOx-1" parent="FMmAYBaprC8Lxchw0cOx-0"/>
                <mxCell id="xq4fcCaDPRgaUvRXnzba-1" value="" style="edgeStyle=none;html=1;" parent="FMmAYBaprC8Lxchw0cOx-1" source="FMmAYBaprC8Lxchw0cOx-2" target="xq4fcCaDPRgaUvRXnzba-0" edge="1">
                    <mxGeometry relative="1" as="geometry"/>
                </mxCell>
                <mxCell id="xq4fcCaDPRgaUvRXnzba-8" style="edgeStyle=none;html=1;" parent="FMmAYBaprC8Lxchw0cOx-1" source="FMmAYBaprC8Lxchw0cOx-2" target="FMmAYBaprC8Lxchw0cOx-3" edge="1">
                    <mxGeometry relative="1" as="geometry">
                        <mxPoint x="660" y="30" as="targetPoint"/>
                        <Array as="points">
                            <mxPoint x="260" y="40"/>
                            <mxPoint x="580" y="40"/>
                            <mxPoint x="900" y="40"/>
                        </Array>
                    </mxGeometry>
                </mxCell>
                <mxCell id="FMmAYBaprC8Lxchw0cOx-2" value="&quot;fnc&quot;" style="rounded=0;whiteSpace=wrap;html=1;" parent="FMmAYBaprC8Lxchw0cOx-1" vertex="1">
                    <mxGeometry x="200" y="110" width="120" height="60" as="geometry"/>
                </mxCell>
                <mxCell id="FMmAYBaprC8Lxchw0cOx-6" value="" style="edgeStyle=none;html=1;" parent="FMmAYBaprC8Lxchw0cOx-1" source="FMmAYBaprC8Lxchw0cOx-3" target="FMmAYBaprC8Lxchw0cOx-5" edge="1">
                    <mxGeometry relative="1" as="geometry"/>
                </mxCell>
                <mxCell id="iEluSHXy62c5UBror3wN-2" style="edgeStyle=none;html=1;" parent="FMmAYBaprC8Lxchw0cOx-1" source="FMmAYBaprC8Lxchw0cOx-3" target="FMmAYBaprC8Lxchw0cOx-18" edge="1">
                    <mxGeometry relative="1" as="geometry">
                        <mxPoint x="1480" y="260" as="targetPoint"/>
                        <Array as="points">
                            <mxPoint x="900" y="220"/>
                            <mxPoint x="1220" y="220"/>
                            <mxPoint x="1540" y="220"/>
                        </Array>
                    </mxGeometry>
                </mxCell>
                <mxCell id="FMmAYBaprC8Lxchw0cOx-3" value="function name" style="whiteSpace=wrap;html=1;rounded=0;" parent="FMmAYBaprC8Lxchw0cOx-1" vertex="1">
                    <mxGeometry x="840" y="110" width="120" height="60" as="geometry"/>
                </mxCell>
                <mxCell id="FMmAYBaprC8Lxchw0cOx-8" value="" style="edgeStyle=none;html=1;" parent="FMmAYBaprC8Lxchw0cOx-1" source="FMmAYBaprC8Lxchw0cOx-5" target="FMmAYBaprC8Lxchw0cOx-7" edge="1">
                    <mxGeometry relative="1" as="geometry"/>
                </mxCell>
                <mxCell id="FMmAYBaprC8Lxchw0cOx-5" value="&quot;(&quot;" style="whiteSpace=wrap;html=1;rounded=0;" parent="FMmAYBaprC8Lxchw0cOx-1" vertex="1">
                    <mxGeometry x="1000" y="110" width="120" height="60" as="geometry"/>
                </mxCell>
                <mxCell id="FMmAYBaprC8Lxchw0cOx-14" value="" style="edgeStyle=none;html=1;" parent="FMmAYBaprC8Lxchw0cOx-1" source="FMmAYBaprC8Lxchw0cOx-7" target="FMmAYBaprC8Lxchw0cOx-13" edge="1">
                    <mxGeometry relative="1" as="geometry"/>
                </mxCell>
                <mxCell id="FMmAYBaprC8Lxchw0cOx-17" value="" style="edgeStyle=none;html=1;" parent="FMmAYBaprC8Lxchw0cOx-1" source="FMmAYBaprC8Lxchw0cOx-7" target="FMmAYBaprC8Lxchw0cOx-16" edge="1">
                    <mxGeometry relative="1" as="geometry"/>
                </mxCell>
                <mxCell id="FMmAYBaprC8Lxchw0cOx-7" value="parameter" style="whiteSpace=wrap;html=1;rounded=0;fillColor=#0050ef;fontColor=#ffffff;strokeColor=#001DBC;" parent="FMmAYBaprC8Lxchw0cOx-1" vertex="1">
                    <mxGeometry x="1160" y="110" width="120" height="60" as="geometry"/>
                </mxCell>
                <mxCell id="FMmAYBaprC8Lxchw0cOx-15" style="edgeStyle=none;html=1;" parent="FMmAYBaprC8Lxchw0cOx-1" source="FMmAYBaprC8Lxchw0cOx-13" target="FMmAYBaprC8Lxchw0cOx-7" edge="1">
                    <mxGeometry relative="1" as="geometry"/>
                </mxCell>
                <mxCell id="FMmAYBaprC8Lxchw0cOx-13" value="&quot;,&quot;" style="whiteSpace=wrap;html=1;rounded=0;" parent="FMmAYBaprC8Lxchw0cOx-1" vertex="1">
                    <mxGeometry x="1160" y="20" width="120" height="60" as="geometry"/>
                </mxCell>
                <mxCell id="FMmAYBaprC8Lxchw0cOx-19" value="" style="edgeStyle=none;html=1;" parent="FMmAYBaprC8Lxchw0cOx-1" source="FMmAYBaprC8Lxchw0cOx-16" target="FMmAYBaprC8Lxchw0cOx-18" edge="1">
                    <mxGeometry relative="1" as="geometry"/>
                </mxCell>
                <mxCell id="FMmAYBaprC8Lxchw0cOx-16" value="&quot;)&quot;" style="whiteSpace=wrap;html=1;rounded=0;" parent="FMmAYBaprC8Lxchw0cOx-1" vertex="1">
                    <mxGeometry x="1320" y="110" width="120" height="60" as="geometry"/>
                </mxCell>
                <mxCell id="FMmAYBaprC8Lxchw0cOx-21" value="" style="edgeStyle=none;html=1;dashed=1;" parent="FMmAYBaprC8Lxchw0cOx-1" source="FMmAYBaprC8Lxchw0cOx-18" target="FMmAYBaprC8Lxchw0cOx-20" edge="1">
                    <mxGeometry relative="1" as="geometry"/>
                </mxCell>
                <mxCell id="XF7G71-dctR0dcR6pd_i-1" value="" style="edgeStyle=none;html=1;" parent="FMmAYBaprC8Lxchw0cOx-1" source="FMmAYBaprC8Lxchw0cOx-18" target="XF7G71-dctR0dcR6pd_i-0" edge="1">
                    <mxGeometry relative="1" as="geometry"/>
                </mxCell>
                <mxCell id="FMmAYBaprC8Lxchw0cOx-18" value="return type" style="whiteSpace=wrap;html=1;rounded=0;" parent="FMmAYBaprC8Lxchw0cOx-1" vertex="1">
                    <mxGeometry x="1480" y="110" width="120" height="60" as="geometry"/>
                </mxCell>
                <mxCell id="FMmAYBaprC8Lxchw0cOx-20" value="&quot;;&quot; for declarations (only in cqh files)" style="whiteSpace=wrap;html=1;rounded=0;" parent="FMmAYBaprC8Lxchw0cOx-1" vertex="1">
                    <mxGeometry x="1640" y="20" width="120" height="60" as="geometry"/>
                </mxCell>
                <mxCell id="b3pcRRu6CYXEGE4Rbbcm-2" style="edgeStyle=none;html=1;" parent="FMmAYBaprC8Lxchw0cOx-1" source="b3pcRRu6CYXEGE4Rbbcm-0" target="FMmAYBaprC8Lxchw0cOx-2" edge="1">
                    <mxGeometry relative="1" as="geometry"/>
                </mxCell>
                <mxCell id="b3pcRRu6CYXEGE4Rbbcm-0" value="function declaration" style="whiteSpace=wrap;html=1;rounded=0;fillColor=#a20025;fontColor=#ffffff;strokeColor=#6F0000;" parent="FMmAYBaprC8Lxchw0cOx-1" vertex="1">
                    <mxGeometry x="40" y="110" width="120" height="60" as="geometry"/>
                </mxCell>
                <mxCell id="XF7G71-dctR0dcR6pd_i-0" value="&quot;{&quot; ... &quot;}&quot;" style="whiteSpace=wrap;html=1;rounded=0;fillColor=#0050ef;fontColor=#ffffff;strokeColor=#001DBC;" parent="FMmAYBaprC8Lxchw0cOx-1" vertex="1">
                    <mxGeometry x="1640" y="110" width="120" height="60" as="geometry"/>
                </mxCell>
                <mxCell id="xq4fcCaDPRgaUvRXnzba-3" value="" style="edgeStyle=none;html=1;" parent="FMmAYBaprC8Lxchw0cOx-1" source="xq4fcCaDPRgaUvRXnzba-0" target="xq4fcCaDPRgaUvRXnzba-2" edge="1">
                    <mxGeometry relative="1" as="geometry"/>
                </mxCell>
                <mxCell id="xq4fcCaDPRgaUvRXnzba-0" value="&quot;(&quot;" style="rounded=0;whiteSpace=wrap;html=1;" parent="FMmAYBaprC8Lxchw0cOx-1" vertex="1">
                    <mxGeometry x="360" y="110" width="120" height="60" as="geometry"/>
                </mxCell>
                <mxCell id="xq4fcCaDPRgaUvRXnzba-5" value="" style="edgeStyle=none;html=1;" parent="FMmAYBaprC8Lxchw0cOx-1" source="xq4fcCaDPRgaUvRXnzba-2" target="xq4fcCaDPRgaUvRXnzba-4" edge="1">
                    <mxGeometry relative="1" as="geometry"/>
                </mxCell>
                <mxCell id="xq4fcCaDPRgaUvRXnzba-2" value="parameter" style="whiteSpace=wrap;html=1;rounded=0;fillColor=#0050ef;fontColor=#ffffff;strokeColor=#001DBC;" parent="FMmAYBaprC8Lxchw0cOx-1" vertex="1">
                    <mxGeometry x="520" y="110" width="120" height="60" as="geometry"/>
                </mxCell>
                <mxCell id="xq4fcCaDPRgaUvRXnzba-7" value="" style="edgeStyle=none;html=1;" parent="FMmAYBaprC8Lxchw0cOx-1" source="xq4fcCaDPRgaUvRXnzba-4" target="FMmAYBaprC8Lxchw0cOx-3" edge="1">
                    <mxGeometry relative="1" as="geometry">
                        <mxPoint x="840" y="140" as="targetPoint"/>
                    </mxGeometry>
                </mxCell>
                <mxCell id="xq4fcCaDPRgaUvRXnzba-4" value="&quot;)&quot;" style="whiteSpace=wrap;html=1;rounded=0;" parent="FMmAYBaprC8Lxchw0cOx-1" vertex="1">
                    <mxGeometry x="680" y="110" width="120" height="60" as="geometry"/>
                </mxCell>
            </root>
        </mxGraphModel>
    </diagram>
    <diagram id="lZAqAVQBOGwe3l7iaLp0" name="function definition">
        <mxGraphModel dx="815" dy="596" grid="1" gridSize="10" guides="1" tooltips="1" connect="1" arrows="1" fold="1" page="1" pageScale="1" pageWidth="1800" pageHeight="280" math="0" shadow="0">
            <root>
                <mxCell id="U62CpKCW3hM7EAT56_M--0"/>
                <mxCell id="U62CpKCW3hM7EAT56_M--1" parent="U62CpKCW3hM7EAT56_M--0"/>
            </root>
        </mxGraphModel>
    </diagram>
</mxfile>